{"title":"Green Mansions (Mel Ferrer, 1979)","uid":8338772,"size":1145186304,"categoryP":"video","categoryS":"movies","magnet":"?xt=urn:btih:1e432e877d9b9bc6e5e3b10f2fbb7657ff8344c1&amp;dn=Green+Mansions+%28Mel+Ferrer%2C+1979%29&amp;tr=udp%3A%2F%2Ftracker.openbittorrent.com%3A80&amp;tr=udp%3A%2F%2Fopen.demonii.com%3A1337&amp;tr=udp%3A%2F%2Ftracker.coppersurfer.tk%3A6969&amp;tr=udp%3A%2F%2Fexodus.desync.com%3A6969","seeders":2,"leechers":0,"uploader":null,"files":1,"time":1365035271,"description":"Abel, son of a murdered government official escapes into the Venezuelan interior bent on revenge. Beyond the jungle in a dense forest, Abel finds an ethereal, innocent girl who has bonded completely with nature, although raised solely by her mysterious grandfather. Eventually, Abel must try and save the girl from her grandfather's duplicity and the superstitions of menacing natives while coming to terms with his own beliefs. \n\nGeneral\nComplete name : Green.Mansions.1959.Mel.Ferrer/GreenMansions.1959.Mel.Ferrer.avi\nFormat : AVI\nFormat/Info : Audio Video Interleave\nFile size : 1.07 GiB\nDuration : 1h 44mn\nOverall bit rate : 1 463 Kbps\nWriting application : VirtualDubMod 1.5.10.2 (build 2540/release)\nWriting library : VirtualDubMod build 2540/release\n\nVideo\nID : 0\nFormat : MPEG-4 Visual\nFormat profile : Advanced Simple@L5\nFormat settings, BVOP : 1\nFormat settings, QPel : No\nFormat settings, GMC : No warppoints\nFormat settings, Matrix : Default (MPEG)\nCodec ID : XVID\nCodec ID/Hint : XviD\nDuration : 1h 44mn\nBit rate : 1 390 Kbps\nWidth : 640 pixels\nHeight : 272 pixels\nDisplay aspect ratio : 2.35:1\nFrame rate : 23.976 fps\nColor space : YUV\nChroma subsampling : 4:2:0\nBit depth : 8 bits\nScan type : Progressive\nCompression mode : Lossy\nBits/(Pixel*Frame) : 0.333\nStream size : 1.01 GiB (95%)\nWriting library : XviD 1.1.2 (UTC 2006-11-01)\n\nAudio\nID : 1\nFormat : MPEG Audio\nFormat version : Version 1\nFormat profile : Layer 3\nCodec ID : 55\nCodec ID/Hint : MP3\nDuration : 1h 44mn\nBit rate mode : Variable\nBit rate : 60.3 Kbps\nChannel(s) : 1 channel\nSampling rate : 48.0 KHz\nCompression mode : Lossy\nStream size : 45.0 MiB (4%)\nAlignment : Aligned on interleaves\nInterleave, duration : 24 ms (0.58 video frame)\nInterleave, preload duration : 432 ms\n","torrent":{"xt":"urn:btih:1e432e877d9b9bc6e5e3b10f2fbb7657ff8344c1","amp;dn":"Green+Mansions+%28Mel+Ferrer%2C+1979%29","amp;tr":["udp%3A%2F%2Ftracker.openbittorrent.com%3A80","udp%3A%2F%2Fopen.demonii.com%3A1337","udp%3A%2F%2Ftracker.coppersurfer.tk%3A6969","udp%3A%2F%2Fexodus.desync.com%3A6969"],"infoHash":"1e432e877d9b9bc6e5e3b10f2fbb7657ff8344c1","infoHashBuffer":{"type":"Buffer","data":[30,67,46,135,125,155,155,198,229,227,177,15,47,187,118,87,255,131,68,193]},"announce":[],"urlList":[]}}